<svg xmlns="http://www.w3.org/2000/svg" xmlns:xlink="http://www.w3.org/1999/xlink" width="16.33" height="21.36" viewBox="0 0 16.33 21.36">
  <defs>
    <clipPath id="clip-path">
      <rect id="矩形_83" data-name="矩形 83" width="16.33" height="21.36" fill="#fff"/>
    </clipPath>
  </defs>
  <g id="组_194" data-name="组 194" clip-path="url(#clip-path)">
    <path id="路径_319" data-name="路径 319" d="M133.933,45.492l.083.117c-.039.013-.082.041-.117.034s-.04-.032-.058-.058v3.478c.045-.02.08-.047.1-.039s.039.054.057.083c-.029.018-.061.053-.087.049s-.043-.041-.073-.08v.494a.088.088,0,0,1,.023.057.066.066,0,0,1-.023.031v2.192a.435.435,0,0,1,.1-.073,2.221,2.221,0,0,0,.2-.127.2.2,0,0,1,.1-.038.157.157,0,0,1,.066.014,1.3,1.3,0,0,0,.041-.13.952.952,0,0,0,.008-.122c.046-.024.1-.055,0-.113a.128.128,0,0,1-.06-.1c.01-.072.07-.055.121-.042l.1.029c0,.132-.009.257-.012.383a.111.111,0,0,0,.013.063,2.347,2.347,0,0,0,.185.243.131.131,0,0,0,.031.024V44.639a.041.041,0,0,1,0-.026l0,0v-2.18h-.89v3.117l.092-.056m.051,1.524c.028.011.043.052.063.081-.03.018-.061.05-.09.048s-.042-.045-.073-.083c.044-.022.08-.054.1-.046m-.031,1.431c-.024-.039-.023-.078.023-.089.023-.006.077.02.077.033,0,.114.087.159.165.221-.058-.007-.116-.011-.173-.022-.015,0-.027-.026-.037-.042-.02-.033-.035-.068-.054-.1m.008.835c.051-.025.09-.059.11-.05a.129.129,0,0,1,.058.089c0,.014-.054.056-.073.05s-.053-.047-.094-.089m.36.8c-.012.025-.053.037-.08.054l-.05-.1c-.125.048-.16.018-.151-.13,0-.022-.02-.048-.014-.066a.4.4,0,0,1,.053-.084c.021.022.061.046.059.067-.007.1.056.121.126.146a.078.078,0,0,1,.056.113m-.06-2.312c-.044,0-.092-.021-.085-.084l.168.04c-.028.016-.056.045-.083.043m.175,2.758-.03-.006c-.009-.029-.033-.064-.024-.085s.05-.039.077-.058c.014.025.044.053.039.073s-.04.051-.061.076m.025-2.713a.3.3,0,0,1-.067-.076l.135.032c-.023.016-.057.05-.068.044m.017-3.022c0-.017.038-.044.051-.04s.037.034.067.065c-.038.015-.063.034-.08.029a.067.067,0,0,1-.037-.054m.036,3.974c.045-.02.079-.047.1-.039s.038.048.055.074c-.027.017-.055.049-.08.047s-.039-.043-.071-.081m.112,2.054-.065-.134.116-.067c.015.035.051.078.041.1s-.06.065-.093.1m-.019-6.418a.36.36,0,0,1-.085-.079l.011-.035c.028-.01.069-.036.081-.026a.434.434,0,0,1,.069.1c-.026.014-.06.046-.075.039m-.116-1.077c.04-.015.068-.037.086-.03s.028.04.041.062c-.022.013-.046.038-.065.034s-.034-.034-.062-.066m.032-.356c.049.034.124.032.1.1a.109.109,0,0,1-.075.043.442.442,0,0,1-.074-.111.423.423,0,0,1,.054-.037m-.077.151a.084.084,0,0,1,.038.067c0,.018-.036.032-.069.06-.015-.043-.035-.071-.03-.094s.049-.04.062-.033m-.231,2.072c.014-.035.065-.055.125-.1.03.07.066.113.06.149a.085.085,0,0,1-.115.059c-.058-.015-.09-.056-.069-.107m.091,1.245a.54.54,0,0,1,.05.132.11.11,0,0,1-.127.082c-.026-.013-.06-.068-.053-.079a.982.982,0,0,1,.131-.135m-.163-.465a.833.833,0,0,1-.148.056c-.012,0-.031-.04-.047-.063a.672.672,0,0,1,.117-.068c.011,0,.037.034.078.075" transform="translate(-118.401 -37.536)" fill="#fff"/>
    <path id="路径_320" data-name="路径 320" d="M134.214,130.3a.165.165,0,0,0,.119-.075c.07-.137.066-.139.219-.085a.358.358,0,0,0,.064.006c-.02-.044-.036-.075-.047-.108s-.045-.1-.029-.123a.18.18,0,0,1,.131-.073.107.107,0,0,1,.061.036v-1.9c-.049-.064-.085-.128-.186-.084-.016.007-.081-.049-.077-.059a.287.287,0,0,1,.074-.1c.012-.011.048,0,.061-.009a.174.174,0,0,1,.129-.055v-.3a.175.175,0,0,0-.047.03c-.023.02-.072.008-.138.013.037-.054.061-.119.085-.119a.448.448,0,0,1,.1.012v-.763a.43.43,0,0,0-.066-.13l.021-.023.045.023V125.7l-.023.022c-.065.061-.1.183-.226.123a.105.105,0,0,1-.055-.069.1.1,0,0,1,.036-.082c.051-.028.123-.028.162-.066s.039-.1.05-.135c.018.013.036.024.054.035v-.9c-.032-.025-.056-.063-.086-.092-.008-.007-.027,0-.031,0l-.158.25c-.086.016-.126-.163-.214-.06a1.845,1.845,0,0,0-.17-.2c-.021-.019-.076,0-.116,0s-.076.012-.114.019v1.6a.894.894,0,0,0,.09.172c.011.014.08-.016.137-.03.01.143.239.028.252.192a2.154,2.154,0,0,1-.218-.035.236.236,0,0,1-.159-.083.17.17,0,0,0-.1-.049v.317l0,0,.125.073-.082.046-.046-.064v1.324l.117-.021c.094-.081.177-.154.263-.224.009-.008.048,0,.048,0a.169.169,0,0,1-.007.08.493.493,0,0,1-.07.083c.167.072.181.157.05.272-.042-.169-.184-.124-.307-.145l-.094.141v2.942l0,0c.075-.082.159-.044.242-.04a.18.18,0,0,1-.183.232.41.41,0,0,0-.064.006v.18h.367a.777.777,0,0,0,.028-.412.761.761,0,0,1,.01-.174l.2.138.034-.017-.109-.321c-.036.022-.075.032-.088.056-.039.072-.1.059-.148.033a.091.091,0,0,1-.042-.144.588.588,0,0,0,.036-.085l.144.026c-.014-.078-.022-.152-.041-.222a.111.111,0,0,0-.065-.057,1.192,1.192,0,0,0-.146-.037l.005-.034a.692.692,0,0,0,.184.04M134,126.264a.539.539,0,0,1-.05-.131.11.11,0,0,1,.127-.083c.026.013.06.068.053.079a.989.989,0,0,1-.131.135m.143,3.651c-.023,0-.045-.049-.092-.108.07-.022.114-.05.134-.038s.045.064.066.1c-.036.018-.073.049-.108.048m.538-2.987.025.017c-.016.065-.027.132-.049.195a.308.308,0,0,1-.061.079c-.023-.024-.045-.048-.069-.071s-.025-.021-.047-.039a.237.237,0,0,0,.2-.181m-.124-.879c.044.032.089.064.131.1,0,0-.026.046-.032.044-.057-.018-.127-.026-.129-.107l.029-.036m-.067.246c.018.014.032.065.023.074a.256.256,0,0,1-.088.038.312.312,0,0,0,0-.07.732.732,0,0,0-.036-.087.4.4,0,0,1,.1.044m-.2-1.112c.12-.044.129.071.183.139a.131.131,0,0,1-.194-.037c-.016-.019,0-.1.012-.1m-.029.417c.03-.018.061-.05.09-.048s.042.045.073.083c-.044.022-.08.054-.1.046s-.043-.052-.063-.081m-.167,1.908c-.014.035-.065.055-.125.1-.03-.07-.066-.113-.06-.148a.086.086,0,0,1,.115-.059c.058.015.09.056.069.107m.136-.538c-.005.022,0,.053-.019.069a.515.515,0,0,1-.09.065c-.012-.037-.039-.075-.034-.109a.342.342,0,0,1,.057-.159.178.178,0,0,1,.078-.046c-.014-.014-.033-.037-.058-.062a.828.828,0,0,1,.148-.056s.008,0,.013.01v0l0,.01c.009.014.019.033.028.045l-.008,0,.034.082.065-.094a.217.217,0,0,1-.222.241m.062.118c.039-.013.082-.041.117-.034s.052.054.077.083l-.111.067-.083-.117m-.24,1.642c.033-.1.128-.059.2-.051.12.012.114.117.1.177-.029.108-.112.011-.168.017-.095,0-.166-.046-.134-.142" transform="translate(-118.401 -110.154)" fill="#fff"/>
    <path id="路径_321" data-name="路径 321" d="M5.536,39.134c-.072-.032-.144-.05-.106-.148a.166.166,0,0,1,.081-.061.633.633,0,0,0-.653-.351H4.166l.019.1-.149-.037,0-.037.07-.027H3.637c0,.009,0,.018,0,.027l-.043.009-.015-.035H2.863l.039.009c.019,0,.016.09.039.129.052.09.011.125-.071.141.018.087.193.166.253.107a.113.113,0,0,1,.09-.041.446.446,0,0,1,.073-.055c.014.044.033.074.027.1a.031.031,0,0,1-.007.009.248.248,0,0,0,.042.03.451.451,0,0,1,.093.075c.027.025.052.05.074.074l.014-.012c.024.051.057.087.049.112A.1.1,0,0,1,3.5,39.3a.082.082,0,0,1-.042-.033.345.345,0,0,1-.076.06.258.258,0,0,1-.152,0c-.1-.021-.208-.05-.322-.078l-.043.128-.1-.016c0,.046.006.086.011.153l-.129-.055a.309.309,0,0,1,.05-.1c.088-.077.182-.147.281-.226l-.2-.278.025-.081c-.089.012-.165.007-.2.1a.245.245,0,0,1-.249.133l-.138-.033c-.053-.013-.114-.017-.093-.1a.032.032,0,0,0-.01-.028c-.14-.067-.05-.167-.031-.25a.173.173,0,0,1,.008-.022H2.09a1.089,1.089,0,0,0-.7.205s0,0,0,.006a.084.084,0,0,1-.076.063.549.549,0,0,0-.116.17l-.074.379a.319.319,0,0,1,.072-.084c.042.169.184.125.306.147l.139-.206c.075.012.1.089.112.156s-.065.08-.119.092-.119.022-.155.029c-.095.081-.178.153-.264.223-.009.007-.048,0-.048,0a.168.168,0,0,1,.008-.08.491.491,0,0,1,.07-.083c-.082-.036-.126-.075-.135-.118l-.181.919.022.018c-.01,0-.017.006-.027.008-.082.418-.177.9-.276,1.4l.016.038.055-.052c.065-.061.1-.183.226-.122a.105.105,0,0,1,.054.07.1.1,0,0,1-.037.082c-.051.028-.123.028-.163.065s-.039.1-.051.134c-.046-.033-.1-.054-.12-.092l0-.007C.412,43,.183,44.147.028,44.886c-.118.563.145.808.714.808H2.188a.2.2,0,0,1-.062-.073c-.031-.067-.058-.135-.093-.216a.086.086,0,0,1-.038,0,.252.252,0,0,1-.089-.036.093.093,0,0,1,.027-.069c.031-.012.091-.018.1,0,.066.109.14.062.23.039a.22.22,0,0,1,.184.056.281.281,0,0,1,.048.2.188.188,0,0,1-.042.1H3.537a.863.863,0,0,0,.93-.806c.15-.769.365-1.983.576-3.141-.031.011-.053.02-.067.013-.03-.013-.05-.05-.074-.076.032-.018.065-.051.1-.049s.034.021.057.049c.169-.928.335-1.814.463-2.4a.889.889,0,0,0,.019-.153m-1.854-.272c.016,0,.031.023.065.051-.041.011-.062.024-.078.02s-.024-.025-.036-.039c.017-.012.034-.032.05-.032m-.208.529c.016.037.037.062.034.082s-.046.041-.056.036a.089.089,0,0,1-.041-.063c0-.014.033-.03.063-.055m-.132.388a.223.223,0,0,1,.012.061.066.066,0,0,1-.022.042.578.578,0,0,1-.108.047c-.009,0-.025-.014-.037-.022l.156-.129m-.01.31a.1.1,0,0,1-.087.039.1.1,0,0,1-.045-.086c.006-.025.051-.042.095-.074.019.054.045.092.038.122m-.376-.674c.014-.028.03-.071.052-.076s.057.025.086.039.042.02.063.028.043.012.063.021a.091.091,0,0,1-.01.036.308.308,0,0,1-.068-.011A.206.206,0,0,1,3.1,39.43a.311.311,0,0,1-.042.093.441.441,0,0,1-.1.059.7.7,0,0,1-.025-.1.131.131,0,0,1,.017-.066m.278,2.2a.073.073,0,0,1,.039.124.7.7,0,0,1-.159.158c-.079.055-.118.031-.127-.064s.144-.244.247-.218m-.292-.422a.066.066,0,0,1-.033-.056c0-.017.031-.031.06-.057.016.038.035.063.032.085s-.042.032-.059.027m-.832-1.749a.861.861,0,0,1,.2.012c.069.047.079.322.3.121l-.028.064.233.3.063-.122.034.014a.292.292,0,0,1-.041.087.489.489,0,0,1-.105.061l.091.074a1.031,1.031,0,0,1-.15.091c-.013.005-.056-.032-.066-.057-.03-.079-.051-.161-.083-.263l-.256.04c.016-.124-.047-.121-.118-.1a.257.257,0,0,1-.047.009l-.022.013-.009-.014c-.05-.007-.069-.048-.053-.126.007-.035.017-.069.029-.118l-.1.017-.012-.022a.483.483,0,0,1,.134-.076m.408,2.325c0-.114-.086-.159-.164-.222.058.007.116.012.173.023.015,0,.027.026.037.042.019.033.034.068.054.1s.023.078-.024.089c-.023.006-.077-.021-.077-.033m.068,1.888c-.041.011-.062.024-.078.02s-.024-.025-.036-.039c.017-.012.034-.032.05-.032s.031.023.065.051m-.035-3.334A.4.4,0,0,1,2.5,40.4c-.021-.022-.061-.046-.059-.067.007-.1-.056-.122-.125-.146s-.08-.062-.056-.113c.012-.025.053-.036.081-.054l.049.1c.125-.047.16-.018.15.131,0,.022.02.048.013.066m-.047.6a.13.13,0,0,1-.057-.089c0-.014.054-.055.073-.05s.052.047.094.09c-.051.024-.09.058-.11.049M2.659,41c.026,0,.045.048.08.09-.049.021-.087.05-.111.042s-.038-.054-.057-.083c.029-.018.062-.053.087-.048m-.108.5c-.029,0-.058-.01-.087-.015a.793.793,0,0,1,.028-.124c.007-.018.035-.028.054-.041s.049-.046.069-.043.04.039.06.06l.159.159c-.075,0-.127.006-.18.007a.93.93,0,0,1-.1,0m.208-.892a.066.066,0,0,1,.025-.13c.027.006.048.045.087.085-.051.022-.085.051-.112.045m-.89.919c-.086-.041-.168-.078-.249-.118a.07.07,0,0,1-.026-.032A1,1,0,0,0,1.5,41.2c-.011-.014-.08.016-.138.03-.01-.143-.239-.029-.251-.193a2.156,2.156,0,0,1,.218.036.236.236,0,0,1,.158.083c.043.057.165.053.252.076a1.223,1.223,0,0,1,.167.051c-.19.07-.081.171-.038.248m.149,1.657c-.012.152-.06.224-.216.2.006-.06-.009-.146.026-.177s.121-.015.191-.02m-.539-1.8a.11.11,0,0,1-.128.082c-.026-.013-.06-.068-.053-.079a.983.983,0,0,1,.132-.135.543.543,0,0,1,.049.132m-.311.531c-.03.018-.061.05-.09.048s-.041-.045-.073-.084c.044-.021.08-.053.1-.045s.042.052.063.081m.907-.226c.021.012.049.02.072.031l-.049.014-.023-.045a.065.065,0,0,1-.022-.019.054.054,0,0,1,0-.033L2.031,41.6l.028-.031c0,.021-.009.045-.01.066l.026.053m-.113-.257c-.025-.012-.037-.048-.055-.074.027-.017.055-.049.08-.046s.039.043.071.082c-.046.02-.079.047-.1.039m.111,1.294a.1.1,0,0,1,.055.067c0,.019-.023.063-.037.063a.143.143,0,0,1-.08-.035c-.034-.026-.063-.057-.115-.106a1,1,0,0,1,.178.01m-.035-.338c.023-.016.057-.049.068-.043a.294.294,0,0,1,.066.076Zm-.083-3.05.064.134-.116.067c-.015-.035-.051-.078-.041-.1s.061-.065.093-.1m-.214-.119a.356.356,0,0,1-.085-.08l.011-.035c.028-.01.07-.035.081-.025a.431.431,0,0,1,.069.1c-.026.014-.06.046-.076.038m.083.556c.023,0,.04.038.074.072-.044.016-.077.041-.1.032s-.04-.047-.059-.072c.027-.012.056-.036.081-.032m-.026,1.2c.011.054.03.089.02.114s-.045.041-.07.061c-.019-.031-.056-.065-.052-.092s.052-.045.1-.083m-.136-1.4c.022.006.037.034.066.065-.038.015-.063.034-.08.028a.067.067,0,0,1-.037-.054c0-.017.038-.043.051-.04m-.051,1.29-.021.03-.125-.073.083-.046.063.089m-.266-.852c.015-.035.065-.054.126-.1.03.07.066.114.059.149a.086.086,0,0,1-.116.059c-.057-.015-.09-.057-.069-.107m-.139.538c.005-.022,0-.053.019-.069a.526.526,0,0,1,.09-.065c.012.037.038.075.033.109a.34.34,0,0,1-.058.159.177.177,0,0,1-.079.045c.014.014.033.037.058.062a.827.827,0,0,1-.148.055s-.008,0-.013-.01v0l0-.01c-.009-.014-.019-.033-.028-.045l.007,0-.034-.082-.066.094a.217.217,0,0,1,.223-.241M.95,40.376l.111-.067.083.117c-.039.013-.082.041-.117.033s-.051-.054-.077-.083M.871,41.465c-.044-.033-.088-.065-.131-.1,0,0,.026-.046.032-.044.057.018.127.026.128.107l-.029.036m.068-.246c-.018-.015-.032-.065-.023-.074A.256.256,0,0,1,1,41.107a.3.3,0,0,0,0,.07.708.708,0,0,0,.035.087.4.4,0,0,1-.1-.045m.21,1.011c.016.019,0,.1-.012.1-.12.043-.128-.072-.182-.139a.131.131,0,0,1,.194.037m-.9,2.626C.192,44.84.16,44.8.181,44.749c.015-.035.065-.054.126-.1.03.07.066.114.059.149a.086.086,0,0,1-.116.059M.484,44.4a.067.067,0,0,1-.037-.054c0-.017.038-.043.051-.04s.037.034.066.065c-.038.015-.063.034-.08.028m.094-.444a.358.358,0,0,1-.085-.08L.5,43.845c.028-.01.07-.035.081-.025a.434.434,0,0,1,.069.1c-.026.014-.06.046-.076.038m.162.32c-.015-.035-.051-.078-.041-.1s.061-.065.093-.1l.064.134L.74,44.28m.3.184c-.011.025-.05.039-.077.057-.014-.025-.043-.053-.038-.073s.04-.051.062-.076l.03.007c.009.029.033.064.024.085m.115.468c-.056-.02-.08-.062-.056-.113.012-.025.053-.037.081-.054l.049.1c.125-.047.16-.018.15.131,0,.022.02.048.013.066a.4.4,0,0,1-.053.084c-.021-.022-.06-.046-.059-.067.007-.1-.056-.122-.125-.146m.191.733a.129.129,0,0,1-.057-.089c0-.014.054-.055.073-.05s.052.048.094.09c-.051.024-.09.058-.11.049m-.056-2.417a.2.2,0,0,1-.1.038.158.158,0,0,1-.066-.014,1.33,1.33,0,0,0-.041.13.942.942,0,0,0-.009.122c-.047.023-.1.055,0,.113a.128.128,0,0,1,.06.1c-.011.071-.071.055-.121.041l-.1-.029c0-.132.01-.257.013-.383A.111.111,0,0,0,.907,43.3a2.35,2.35,0,0,0-.184-.244c-.034-.037-.094-.047-.138-.076A.256.256,0,0,1,.5,42.9c-.006-.012.034-.07.048-.068a.31.31,0,0,1,.133.047.8.8,0,0,1,.1.1c.008.008.027,0,.031,0l.16-.249c.086-.016.126.163.214.061a1.847,1.847,0,0,0,.169.2c.021.019.077,0,.116,0s.083-.013.125-.021c0,.023.018.058.008.068a.467.467,0,0,1-.12.09,2.236,2.236,0,0,0-.2.126m.311,2.1a.066.066,0,0,1,.025-.13c.028.006.048.045.087.085-.051.022-.085.051-.112.045m.385-1.158a.21.21,0,0,1-.039-.021.309.309,0,0,1-.042.093.441.441,0,0,1-.1.059.684.684,0,0,1-.024-.1.13.13,0,0,1,.016-.066c.014-.028.03-.071.052-.076s.057.025.086.039.042.02.063.028.043.012.063.021a.092.092,0,0,1-.01.036.32.32,0,0,1-.067-.01m.065-.525c0-.021.041-.035.078-.064.014.044.033.074.027.1s-.052.042-.063.036a.089.089,0,0,1-.042-.07m.037,1.2a.1.1,0,0,1-.045-.086c.006-.025.051-.042.095-.074.019.054.045.092.038.121a.1.1,0,0,1-.087.039m.109-.287a.066.066,0,0,1-.022.042.578.578,0,0,1-.108.047c-.009,0-.025-.014-.037-.022l.156-.129a.221.221,0,0,1,.012.061m-.018-1.423c0,.012-.018.035-.022.034a2.287,2.287,0,0,1-.242-.084c-.015-.007-.027-.059-.017-.08a.151.151,0,0,1,.155-.111c.049,0,.1.016.15.025-.008.074-.014.145-.023.216m.111-2.006c.047.058.194.075.083.186a.128.128,0,0,1-.114.03c-.139-.087.023-.141.031-.216m-.061.771.057-.232a.22.22,0,0,1,.041.321.069.069,0,0,1-.063.015.179.179,0,0,1-.04-.073c0-.008,0-.021.006-.032m.083.466c.044,0,.092.021.085.084l-.168-.041c.028-.015.057-.045.083-.043m.11,1.6a.1.1,0,0,1-.081.054c-.025,0-.064-.054-.059-.076s.048-.05.091-.09c.024.051.057.087.049.112m-.127.261a.09.09,0,0,1-.041-.063c0-.014.033-.03.063-.055.016.036.037.062.034.082s-.046.041-.056.036m.224.218a.107.107,0,0,1-.052-.03.936.936,0,0,1-.062-.078l.1-.041c.038.028.071.041.086.065a.236.236,0,0,1,.015.087.507.507,0,0,1-.085,0m.464-.844a.409.409,0,0,1-.106.049.177.177,0,0,1-.042,0c0,.035.007.062.012.089a.091.091,0,0,1-.119.114.166.166,0,0,1-.116-.153.258.258,0,0,1,.17-.14c.02,0,.046,0,.057-.014.035-.039.075-.061.118-.025.019.016.033.071.025.078m0-.851a.205.205,0,0,1,.083-.3c.051-.016.109-.053.153-.04s.1.072.143.11l-.015.027H3.26c-.071.08-.124.149-.187.208a.093.093,0,0,1-.091,0m.4.8L3.2,43.514l.089-.117.1.148-.016.032m.28-2.726A.16.16,0,0,1,3.525,41a.243.243,0,0,1-.237-.123c-.031-.067-.058-.135-.093-.216a.088.088,0,0,1-.038,0,.252.252,0,0,1-.089-.036.092.092,0,0,1,.027-.069c.03-.012.091-.018.1,0,.066.109.14.062.23.039a.22.22,0,0,1,.184.056.28.28,0,0,1,.048.2m.017-1.124a.107.107,0,0,1-.052-.03.913.913,0,0,1-.062-.078l.1-.041c.038.028.071.041.086.065a.235.235,0,0,1,.015.088.507.507,0,0,1-.085,0m.164-.2a.905.905,0,0,1,.135-.082l.043.162a.523.523,0,0,1-.143,0c-.019-.006-.042-.072-.035-.078m.543,3.9a.132.132,0,0,1-.183.082.128.128,0,0,1-.1-.157.168.168,0,0,1,.183-.1.141.141,0,0,1,.1.177m.3-.293c-.063.031-.122.091-.208.034-.026-.017-.114.021-.117.012-.051-.126-.11-.037-.168,0L3.931,42.9l.011-.027a1.673,1.673,0,0,0,.18.042c.052.007.139.019.153-.005a.525.525,0,0,0,.029-.194,1.984,1.984,0,0,1,.289-.063c.077-.007.22.15.236.233a.3.3,0,0,1-.149.249m-.225-3.424-.185.161c0-.049,0-.093,0-.139-.037,0-.123-.139-.093-.173a.092.092,0,0,1,.088,0c.069.047.131.1.191.154m-.018-.618c.037-.015.062-.034.074-.028s.029.037.042.057c-.021.011-.042.031-.064.031s-.027-.029-.052-.059m-.216,1.271c.09-.014.129.018.081.112a.721.721,0,0,0-.036.142l.157-.211.03.016c-.024.094.078.2-.054.286-.09.056-.192.053-.213-.019-.01-.035-.027-.068-.037-.1a.41.41,0,0,0-.022-.09c-.012-.02-.042-.029-.066-.044l.161-.089m.108,1.062a.426.426,0,0,1-.064.036.9.9,0,0,1-.066-.1l.058-.036.073.1M4.6,39.774l.026-.027a.831.831,0,0,1,.117.01c.021,0,.054.026.053.038a.174.174,0,0,1-.034.083s-.042-.01-.06-.023c-.036-.025-.068-.055-.1-.082m.274-.825c-.1.063-.174.053-.229,0-.045-.006-.065,0-.072-.011-.038-.047-.059-.123-.146-.051a1.074,1.074,0,0,1-.162.082c-.056.032-.1.087-.168.011a.144.144,0,0,1-.031-.057l-.028.011a.184.184,0,0,1-.042,0C4,38.97,4,39,4,39.024a.091.091,0,0,1-.119.114.167.167,0,0,1-.116-.153.258.258,0,0,1,.17-.14c.02,0,.046,0,.057-.014.035-.039.075-.061.118-.025l0,0,0,0a.071.071,0,0,1,.047-.015c.115.013.23.033.345.039a.157.157,0,0,0,.113-.05.16.16,0,0,1,.25-.038l.016.014c.144.117.133.1-.022.193" transform="translate(0 -34.124)" fill="#fff"/>
    <path id="路径_322" data-name="路径 322" d="M63.143,4.272a2.088,2.088,0,0,0,.5-.062l-.011-.016.012-.018.04.023a2.09,2.09,0,0,0,.631-.285.12.12,0,0,0-.018-.06.062.062,0,0,1,0-.1c.014-.01.055.016.084.026l0,.019A.147.147,0,0,0,64.4,3.8a.072.072,0,0,1,.08-.006c.05-.042.1-.086.144-.132-.072-.056-.05-.141-.057-.217,0-.01.032-.031.05-.032a.218.218,0,0,1,.067.014c0,.056.01.106.014.154a2.1,2.1,0,1,0-1.554.694M64.618,3c-.048.016-.088.033-.13.043s-.045.022-.012.05.044.046.083.087c-.038.006-.077.025-.1.013A.174.174,0,0,1,64.4,3.1c-.019-.056-.028-.116-.042-.177A.214.214,0,0,1,64.618,3m-1.259.771c0-.012.005-.027.006-.039L63.35,3.7c-.012-.007-.029-.012-.043-.019l.029-.008.014.027a.04.04,0,0,1,.013.011.033.033,0,0,1,0,.02l.01.021-.017.018m-.044-.729c0-.011.013-.037.022-.038a.084.084,0,0,1,.048.021c.02.015.038.034.069.063a.608.608,0,0,1-.106-.006.059.059,0,0,1-.033-.04m.2,1.084c-.007-.032-.018-.053-.012-.068s.027-.025.041-.036c.011.018.034.039.031.055s-.031.027-.06.05m.525-.1a.153.153,0,0,1-.052.023.184.184,0,0,0,0-.042.417.417,0,0,0-.021-.052.234.234,0,0,1,.062.026c.011.009.019.039.014.044M63.9,3.375a.067.067,0,0,1,.007-.061c.071-.026.077.042.109.083a.078.078,0,0,1-.116-.022m.227.541c-.034-.011-.076-.015-.077-.064l.017-.022c.026.019.053.038.078.059,0,0-.015.027-.019.026m.1-.24a.124.124,0,0,1-.023-.033c-.007-.013-.012-.027-.017-.041l-.033.031c-.039.037-.058.109-.135.073a.063.063,0,0,1-.033-.041.06.06,0,0,1,.022-.049c.031-.017.073-.017.1-.039s.023-.06.03-.08c.027.02.059.032.072.055a.542.542,0,0,1,.041.116s-.019.01-.021.008m-.6-.779a.281.281,0,0,1,.072-.054,1.323,1.323,0,0,0,.117-.076.12.12,0,0,1,.061-.023.094.094,0,0,1,.039.008.8.8,0,0,0,.024-.077.57.57,0,0,0,0-.073c.028-.014.061-.033,0-.067a.076.076,0,0,1-.036-.057c.006-.043.042-.033.072-.025l.057.017c0,.079-.005.153-.007.228a.067.067,0,0,0,.007.037,1.42,1.42,0,0,0,.111.145c.02.022.056.028.083.045a.151.151,0,0,1,.05.049c0,.007-.02.042-.029.041a.184.184,0,0,1-.08-.028.481.481,0,0,1-.058-.06s-.016,0-.019,0l-.094.149c-.051.01-.075-.1-.128-.036a1.107,1.107,0,0,0-.1-.117c-.012-.011-.046,0-.069,0s-.05.008-.075.013c0-.014-.011-.034,0-.04m.009.988a.592.592,0,0,0,.056.108c.007.009.047-.01.082-.018.006.085.142.017.15.114a1.255,1.255,0,0,1-.13-.021.141.141,0,0,1-.095-.049c-.026-.034-.1-.031-.15-.045a.734.734,0,0,1-.1-.03c.113-.042.048-.1.022-.148l.149.07a.042.042,0,0,1,.015.019M63.508,2.69c0,.036.006.087-.015.106s-.072.009-.114.012c.006-.09.035-.133.128-.118m-.221.133c0-.007.011-.021.013-.02a1.361,1.361,0,0,1,.145.049c.009,0,.016.035.011.048a.09.09,0,0,1-.092.066c-.029,0-.058-.009-.089-.015,0-.044.008-.086.013-.129m-.085.684A.04.04,0,0,1,63.24,3.5a.107.107,0,0,1,.024.043s0,.012,0,.019l-.033.138a.131.131,0,0,1-.025-.191m-.026.4a.076.076,0,0,1,.068-.018c.083.051-.013.084-.018.129-.028-.034-.116-.044-.05-.111m-1.127.017-.044-.061a.243.243,0,0,1,.038-.022.52.52,0,0,1,.039.061l-.034.022m.61-.178a.043.043,0,0,1-.024-.074.416.416,0,0,1,.094-.094c.047-.033.07-.019.076.038s-.085.146-.147.131M63,3.812a.593.593,0,0,1,.062,0c.017,0,.035.006.052.009A.479.479,0,0,1,63.1,3.9c0,.011-.021.017-.032.025s-.029.028-.041.026-.024-.023-.036-.036l-.1-.095.107,0m-.2-.757a.122.122,0,0,1-.049.181c-.031.01-.065.032-.091.025s-.057-.042-.085-.065l.009-.016h.051c.042-.048.074-.089.111-.124a.056.056,0,0,1,.054,0m-.238-.477.1.037-.053.07L62.558,2.6l.01-.019m-.6.094a.079.079,0,0,1,.109-.05.077.077,0,0,1,.058.094.1.1,0,0,1-.109.061.084.084,0,0,1-.059-.105m-.177.176c.037-.019.073-.055.124-.021.016.01.068-.013.07-.007.03.075.065.022.1,0l.153.164L62.233,3a.947.947,0,0,0-.108-.025c-.031,0-.083-.011-.091,0a.314.314,0,0,0-.017.116,1.165,1.165,0,0,1-.172.038c-.046,0-.131-.089-.142-.138a.178.178,0,0,1,.088-.149" transform="translate(-53.991)" fill="#fff"/>
    <path id="路径_323" data-name="路径 323" d="M140.393,177.338a.069.069,0,0,0-.027.026c-.044.092-.082.186-.124.287l.151.045Z" transform="translate(-124.063 -156.88)" fill="#fff"/>
    <path id="路径_324" data-name="路径 324" d="M76.942,45.808a1.21,1.21,0,0,0-.178-.136l.09.124-.015.049c.043-.006.08-.007.1-.037" transform="translate(-67.908 -40.403)" fill="#fff"/>
    <path id="路径_325" data-name="路径 325" d="M138.863,182.674a.136.136,0,0,1-.239-.074c-.007-.025-.01-.05-.02-.1a.2.2,0,0,0,.025.248l-.037.057h.322v-.268a.291.291,0,0,1-.051.133" transform="translate(-122.584 -161.449)" fill="#fff"/>
    <path id="路径_326" data-name="路径 326" d="M107.836,184.982c-.03,0-.079-.01-.087,0a.069.069,0,0,0,0,.012h.163a.542.542,0,0,0-.071-.015" transform="translate(-95.314 -163.637)" fill="#fff"/>
    <path id="路径_327" data-name="路径 327" d="M38.467,60.531c.036-.018.07-.052.119-.02.015.01.065-.012.067-.007.029.072.063.021.1,0l.147.157,0,.007h1.17l-.028-.049a.072.072,0,0,1-.063.024c-.028,0-.056-.009-.086-.014,0-.042.008-.083.013-.123,0-.007.01-.02.012-.019l.059.018-.833-1.488L39,59.144c-.1-.055-.116-.113-.066-.18a.113.113,0,0,1,.161-.034l-.526-.94a.175.175,0,0,1-.131-.042l-.016-.014c-.141-.114-.133-.1.011-.187l-.862-1.54-.091.055c-.033-.052-.075-.088-.071-.119s.05-.058.083-.078l-2.9-5.184.758-3.148a.24.24,0,0,1-.169-.12c-.031-.067-.059-.135-.094-.216a.085.085,0,0,1-.038,0,.249.249,0,0,1-.089-.036.092.092,0,0,1,.027-.069c.03-.012.091-.019.1,0,.066.109.14.061.23.038a.22.22,0,0,1,.185.055.27.27,0,0,1,.049.178c.332.35,1.224,1.245,1.561,1.145.645-.191,3.709-1.388,3.709-1.388v-1.78l-3.6,1a.142.142,0,0,0,.1.053l-.008.006a.453.453,0,0,1-.049.057.359.359,0,0,1-.094-.075l-.02-.023-.048.013-.028-.029a.208.208,0,0,1-.047-.012c-.042-.015-.082-.034-.118-.049l-.04.076-.021,0c0-.029,0-.058,0-.088a.886.886,0,0,0,.117,0,.052.052,0,0,0,.023-.012l-.089-.091-.109.014a.4.4,0,0,0-.071.009c-.057.018-.091-.006-.09-.068,0-.027-.01-.053.019-.077s.038-.064-.012-.091l.063.011-.275-.279c-.025.053-.046.106-.071.164l.183.055c-.073.037-.072.037-.09.12a.215.215,0,0,1-.033.1.081.081,0,0,1-.142-.044c0-.015-.006-.03-.012-.058a.116.116,0,0,0,.015.148.956.956,0,0,1-.056.081.277.277,0,0,1-.049.038l-.043-.062s0-.008,0-.012a.469.469,0,0,0,.02-.256.452.452,0,0,1,.006-.1l.121.082.02-.01-.065-.191c-.021.013-.045.019-.052.033-.023.043-.057.035-.088.019a.054.054,0,0,1-.025-.086.345.345,0,0,0,.021-.051l.086.016c-.008-.047-.013-.091-.025-.133a.067.067,0,0,0-.039-.034.717.717,0,0,0-.087-.022l0-.02a.417.417,0,0,0,.11.024.1.1,0,0,0,.057-.027l-.355-.358c-.13-.132-.238-.259-.34-.372-.025,0-.05.017-.076.018a1.436,1.436,0,0,1-.284-.072c-.011,0-.01-.053-.023-.077-.031-.053-.007-.075.042-.084-.011-.052-.116-.1-.151-.063-.062.061-.093,0-.134-.024a.268.268,0,0,1-.056-.044c-.023-.022-.045-.045-.062-.062l.052-.053a1.224,1.224,0,0,0-.234-.021h-.843a1.045,1.045,0,0,0-1.031.533l.029-.024.027.037.013.037a.274.274,0,0,1-.069.008c-.006,0-.015-.017-.017-.029a2.452,2.452,0,0,0-.218.721c-.1.577-.706,3.859-1.328,7.2l.094.033-.088.118-.026-.038c-.289,1.556-.581,3.119-.823,4.422a.085.085,0,0,1,.07.038.141.141,0,0,1,.032.056l.028-.011a.183.183,0,0,1,.042,0c0-.035-.007-.062-.013-.089a.091.091,0,0,1,.119-.114.167.167,0,0,1,.117.152.258.258,0,0,1-.17.141c-.02,0-.046,0-.057.014-.035.039-.074.062-.118.025l0,0,0,0a.072.072,0,0,1-.047.015l-.038,0-.459,2.46a.076.076,0,0,1,.1-.034.073.073,0,0,1,.056.09.1.1,0,0,1-.1.059.078.078,0,0,1-.059-.067l-.021.115c.019,0,.039-.011.04-.007.029.072.063.021.1,0l.147.157-.006.016a.947.947,0,0,0-.1-.024c-.03,0-.079-.01-.087,0a.3.3,0,0,0-.016.111c-.035.008-.079.021-.124.029l-.016.085h.7l-.022-.02.009-.015h.049c.04-.046.071-.085.106-.119a.053.053,0,0,1,.052,0,.117.117,0,0,1-.017.154h1.791l.135-.675a1.214,1.214,0,0,0-.224-.178.533.533,0,0,0,0,.13.127.127,0,0,1-.09.169.318.318,0,0,1-.173-.011c-.017,0-.027-.05-.033-.078a.134.134,0,0,1,.011-.053c.045-.189.045-.189.246-.191l-.139-.122,0,.005-.076-.089-.116.187s-.028-.042-.056-.045c-.131-.018-.123-.1-.085-.193a.355.355,0,0,1-.071-.03,1.011,1.011,0,0,1-.082-.074.517.517,0,0,1,.132-.046c.036,0,.073.031.111.033.14.01.14.008.1.135l.1.024.09-.2c.108.105.209.036.3.013l.084.144c-.02,0-.048-.006-.064,0a.129.129,0,0,0-.058.066.125.125,0,0,0,.021.086c.022.033.056.058.081.09.009.012.017.024.025.037l.56-2.8c-.047,0-.1,0-.145-.012l-.138.207c-.075-.011-.1-.089-.112-.155s.064-.081.119-.093.119-.023.155-.029l.168-.144.177-.884a.261.261,0,0,1-.073.013c-.005.022,0,.053-.019.069a.514.514,0,0,1-.09.065c-.012-.036-.039-.075-.034-.109a.34.34,0,0,1,.057-.159.175.175,0,0,1,.078-.046c-.014-.014-.033-.037-.058-.061a.829.829,0,0,1,.148-.056s.008,0,.013.01v0l0,.01.018.03.075-.376a.055.055,0,0,0,0-.008.724.724,0,0,0-.036-.087l.052.018.083-.413a.172.172,0,0,1-.041-.013.106.106,0,0,1-.055-.069.1.1,0,0,1,.037-.082.512.512,0,0,1,.1-.034L33.7,54l.524.913a.1.1,0,0,1,.078.063.145.145,0,0,1,.009.09l1.032,1.8.054.082c.115.049.14.085.1.193l.008.014a.147.147,0,0,1,.058-.01c.044.008.1.011.125.039a.151.151,0,0,1,.01.123c-.031.1.053.122.1.174a.392.392,0,0,1,.095.135c.012.05.024.115-.04.138l.074.128c.036-.009.071-.02.106-.027s.054-.013.06-.005c.06.093.14.072.229.057.042-.007.092.04.138.062-.025.034-.052.066-.076.1-.036.053-.069.108-.108.169l.019.064a.436.436,0,0,1,.069-.063l.046.061.022.062a.464.464,0,0,1-.115.013l.008.027.192.046.023-.308c.086.028.148.045.207.068.084.033.093.077.026.134a.481.481,0,0,1-.131.072c-.126.051-.147.093-.1.212a.16.16,0,0,1-.043.212l-.015.012L37.53,60.67h.854a.172.172,0,0,1,.084-.139m.744-.259.1.035-.051.067L39.2,60.29l.009-.018M38.8,60.4a.1.1,0,0,1-.1.059.081.081,0,0,1-.057-.1.075.075,0,0,1,.1-.048.073.073,0,0,1,.056.09m-.128-1.55c.008,0,.038.02.037.028a.158.158,0,0,1-.03.063.27.27,0,0,1-.055.056.672.672,0,0,1-.08.044c.031-.063.05-.108.075-.15a.11.11,0,0,1,.053-.042m-.127-.235c.05.125.031.163-.071.163l.071-.163m-8.064-1.593-.044-.162a.525.525,0,0,1,.143,0c.019.006.042.072.036.077a.908.908,0,0,1-.134.082m-.057.808,0,.037-.123.047-.023-.12Zm-.189.235a.688.688,0,0,1,.15-.074l-.012.187c-.033-.005-.076,0-.1-.019s-.049-.087-.041-.094m-.088.862c-.1-.055-.116-.113-.066-.18s.129-.073.246.023l-.18.157m.264,1.231-.058-.085.009-.018.1.035-.05.067m-.07-1.547c-.023,0-.052-.064-.1-.127.072-.027.122-.064.152-.052s.057.07.084.109a.4.4,0,0,1-.137.07m.227-.39c-.025-.017-.034-.056-.05-.085.027-.014.058-.044.079-.038s.044.045.088.1c-.064.016-.1.038-.118.027m1.761,2.238c-.046.016-.084.032-.124.041s-.043.021-.012.048.042.044.08.084c-.036.006-.073.024-.092.012a.165.165,0,0,1-.057-.085c-.018-.054-.027-.111-.04-.17a.2.2,0,0,1,.245.07m2.192-12.592c-.025-.009-.039-.054-.057-.083.029-.018.061-.053.087-.049s.045.048.08.089c-.049.021-.086.051-.11.043M34,49.083a.3.3,0,0,1,.067.076l-.135-.032c.023-.016.057-.05.068-.044m-.149-.912c-.025-.012-.038-.048-.055-.074.027-.017.055-.049.08-.047s.039.043.071.081c-.046.02-.079.047-.1.039M34,46.519c-.014-.025-.044-.053-.039-.073s.04-.051.061-.076l.03.006c.009.029.033.064.024.085s-.05.039-.077.058m-.017-1.245.043-.1c.03.074.019.1-.043.1m.09.131a.422.422,0,0,1-.048.026c.018-.037.03-.064.045-.089a.065.065,0,0,1,.031-.025s.023.012.022.017a.094.094,0,0,1-.018.037.162.162,0,0,1-.033.034m.195,1.458c.125-.048.16-.018.151.13,0,.022.02.048.014.066a.4.4,0,0,1-.053.084c-.021-.022-.061-.046-.059-.067.007-.1-.056-.121-.126-.146a.078.078,0,0,1-.056-.113c.012-.025.053-.037.08-.054l.05.1m-.011-1.48c.034-.046.077-.043.147.014l-.107.093c-.058-.033-.069-.067-.04-.107M34.2,49.128c.044,0,.092.021.085.084l-.168-.04c.028-.016.056-.045.083-.043m.033,1.119c.026.013.06.068.053.079a.983.983,0,0,1-.131.135.538.538,0,0,1-.05-.131.11.11,0,0,1,.127-.082m.011-1.964c.058.007.116.011.173.022.015,0,.027.026.037.042.019.033.035.068.054.1s.023.077-.023.089c-.022.006-.077-.02-.077-.033,0-.114-.087-.159-.165-.221m.223,2.588c.012,0,.031.04.046.063A.674.674,0,0,1,34.4,51c-.011,0-.037-.034-.078-.075a.821.821,0,0,1,.148-.056m.011-.992c-.028-.011-.043-.052-.063-.081.03-.018.061-.05.09-.049s.042.045.073.084c-.044.022-.08.054-.1.046m.353-1.953a.065.065,0,0,1-.033-.055c0-.017.031-.031.06-.057.016.038.036.063.033.085s-.042.032-.059.028m.162.555c.023.007.038.037.057.057-.022.014-.047.04-.067.037s-.045-.033-.086-.067c.048-.015.076-.034.1-.027m.136-1.618a.1.1,0,0,1-.046-.086c.005-.025.051-.042.094-.075.019.053.046.092.038.121a.1.1,0,0,1-.087.039m.108-.288a.067.067,0,0,1-.022.043.586.586,0,0,1-.108.048c-.009,0-.025-.014-.037-.022l.155-.13a.226.226,0,0,1,.012.061m.1-.332a.089.089,0,0,1-.041-.063c0-.014.032-.03.063-.055.016.036.038.062.034.082s-.046.042-.056.036m.225.217a.106.106,0,0,1-.052-.03.936.936,0,0,1-.063-.078l.1-.041c.038.028.071.041.086.065a.235.235,0,0,1,.015.087.507.507,0,0,1-.085,0m-.127-1c.014-.014.04-.017.072-.029l-.049-.034.018-.076.1.048.007-.064c.018,0,.04-.011.055,0a.072.072,0,0,1,.028.042c-.035.034,0,.056.01.084s.034.088.052.136c-.011,0-.022.005-.024.01a.113.113,0,0,1-.091.064l.012.01c-.041.012-.061.024-.078.02a.035.035,0,0,1-.017-.013.085.085,0,0,1-.036,0,.128.128,0,0,1-.064-.2m-.008.24c-.011.02-.04.031-.06.046-.05-.02-.069-.036-.057-.08s.043-.035.075-.029.065.023.043.063m-.1-.661c.013,0,.021.024.032.037l-.05.038-.027-.057c.015-.007.033-.021.045-.017m-.01.741c.083.006.083,0,.062.08l.059.014.053-.119c.058.057.113.028.165.013a.092.092,0,0,1-.007-.048.258.258,0,0,1,.169-.141c.02,0,.046,0,.057-.014.035-.039.074-.062.118-.025.019.016.034.071.025.078a.409.409,0,0,1-.105.05.181.181,0,0,1-.042,0c0,.035.007.062.012.089a.091.091,0,0,1-.119.114.136.136,0,0,1-.046-.023.075.075,0,0,0-.036,0,.076.076,0,0,0-.035.039.075.075,0,0,0,.013.051c.013.02.033.034.048.053.032.041.048.1.116.1.019,0,.039.02.058.031l-.043.048,0,.018c.027,0,.065,0,.08-.013.045-.049.095-.026.144-.024a.108.108,0,0,1-.109.138.8.8,0,0,0-.171.038l-.067-.065c0-.046.013-.1-.007-.131a.607.607,0,0,0-.139-.112.318.318,0,0,0,0,.078.076.076,0,0,1-.054.1.188.188,0,0,1-.1-.006c-.01,0-.016-.03-.02-.046a.081.081,0,0,1,.007-.031c.027-.112.027-.112.147-.114l-.083-.073v0l-.045-.053v0c.024.046.052.079.045.1a.071.071,0,0,1-.139-.017l-.006,0c-.078-.01-.073-.057-.051-.115a.212.212,0,0,1-.042-.018.605.605,0,0,1-.049-.044.312.312,0,0,1,.078-.027c.021,0,.044.018.066.02m-.152-.5c.058.01.051.061.052.1,0,.01-.027.021-.06.044a.938.938,0,0,1-.041-.119c0-.006.034-.029.049-.027m0,.32c.014.044.034.074.027.1s-.052.043-.063.036a.089.089,0,0,1-.042-.07c0-.021.041-.036.078-.064m-.127.543c.021.008.043.012.063.02a.092.092,0,0,1-.01.036.312.312,0,0,1-.067-.01.211.211,0,0,1-.039-.021.308.308,0,0,1-.042.094.441.441,0,0,1-.1.06.7.7,0,0,1-.025-.1.131.131,0,0,1,.016-.066c.014-.028.03-.071.052-.076s.057.024.086.038.042.02.063.028m-.043-.647c-.049.044-.088.094-.14.032a.078.078,0,0,1,.011-.077c.056-.04.083.02.129.044m-.148-.484c.01,0,.027.038.026.059,0,.044-.041.039-.067.035s-.023-.029-.046-.061c.04-.017.064-.034.087-.033m-.142-.153.026-.005.033.076-.013.014c-.018-.006-.047-.009-.051-.02a.162.162,0,0,1,.006-.065m.052,2.442c-.051.023-.085.051-.112.046a.066.066,0,0,1,.024-.13c.028.005.049.044.088.084m-.189-2.3c.016,0,.026.027.053.057-.038.01-.06.023-.07.016s-.02-.033-.03-.051c.016-.008.035-.026.047-.023m-.177,2.667a.129.129,0,0,1-.058-.089c0-.014.054-.056.073-.05s.053.047.094.089c-.051.025-.09.058-.11.05m.024-2.361c-.014,0-.031-.039-.059-.076.043-.016.073-.038.091-.031s.034.042.05.065a.235.235,0,0,1-.082.042m-.064-.325a.415.415,0,0,1,.09-.044l-.007.111c-.02,0-.045,0-.058-.011s-.029-.052-.024-.056m.111-.118-.073.028-.014-.072.089.021,0,.022m-.27-.325c.008,0,.016.017.032.035-.022.009-.037.021-.044.017s-.017-.022-.025-.034c.013-.007.025-.019.038-.019m-.226.12c.062-.038.1-.032.136,0,.027,0,.039,0,.043.007.023.028.036.073.087.03a.651.651,0,0,1,.1-.049c.033-.019.061-.052.1-.007s.021.074-.015.1a.044.044,0,0,1-.028.009c-.069-.007-.137-.019-.206-.022a.093.093,0,0,0-.067.03.1.1,0,0,1-.149.024l-.01-.009c-.086-.069-.079-.059.012-.115m-.131,1.425.065.134-.116.067c-.015-.035-.051-.078-.041-.1s.06-.066.093-.1m-.1,6.2c-.014.039-.06.066-.093.1l-.065-.134.116-.067c.015.035.051.078.041.1m-.258-2.908a.3.3,0,0,1-.067-.076l.135.032c-.023.016-.057.05-.068.044m.036,2.637c-.007.029-.04.051-.061.076l-.03-.006c-.009-.029-.033-.064-.024-.085s.05-.039.077-.058c.014.025.044.053.039.073M33.49,46.35c0-.017.038-.044.051-.04s.037.034.066.065c-.038.015-.063.034-.08.029a.067.067,0,0,1-.037-.054m.132,3.934c.025.012.038.048.055.074-.027.017-.055.049-.08.047s-.039-.043-.071-.081c.046-.02.079-.047.1-.039m0-4.325a.365.365,0,0,1-.085-.079l.011-.035c.028-.01.069-.036.081-.026a.43.43,0,0,1,.069.1c-.026.014-.06.046-.075.039M33.5,44.883c.04-.015.068-.037.086-.03s.028.04.041.062c-.022.013-.046.038-.065.035s-.034-.034-.062-.066m.032-.356c.049.034.124.032.1.1a.109.109,0,0,1-.075.043.435.435,0,0,1-.074-.111.437.437,0,0,1,.053-.037m-.077.151a.084.084,0,0,1,.038.067c0,.017-.036.032-.069.06-.015-.043-.036-.072-.03-.094s.049-.04.062-.033m-.231,2.072c.014-.035.065-.055.125-.1.03.07.066.113.06.149a.086.086,0,0,1-.115.059c-.058-.015-.09-.056-.069-.107m.091,1.245a.541.541,0,0,1,.05.131.11.11,0,0,1-.127.082c-.026-.013-.061-.068-.053-.079a.978.978,0,0,1,.131-.135m-.279,3.4a.4.4,0,0,1,.053-.084c.021.022.061.046.059.067-.007.1.056.121.126.146a.078.078,0,0,1,.056.113c-.012.025-.053.037-.08.054l-.05-.1c-.125.048-.16.018-.151-.13,0-.022-.02-.048-.014-.066m-.069-2.691c-.022,0-.042-.045-.073-.084.044-.022.08-.054.1-.046s.043.052.063.081c-.03.018-.061.05-.089.049m.095,1.245c0,.114.087.159.165.221-.058-.007-.116-.011-.173-.022-.015,0-.027-.026-.037-.042-.019-.033-.035-.068-.054-.1s-.023-.077.023-.089c.023-.006.077.02.077.033m-.109.633c.025.009.039.054.057.083-.029.018-.061.053-.087.049s-.045-.048-.08-.089c.049-.021.086-.051.11-.042m.127.21a.129.129,0,0,1,.058.088c0,.014-.054.056-.073.05s-.053-.047-.094-.089c.051-.025.09-.059.11-.049m.19-1.466c-.044,0-.092-.021-.085-.084l.168.04c-.028.015-.056.045-.083.043m-.118-1.8a.826.826,0,0,1-.148.056c-.012,0-.031-.041-.046-.063a.671.671,0,0,1,.116-.068c.011,0,.037.034.078.075m-.21-.477.083.117c-.039.013-.082.041-.117.034s-.052-.054-.077-.083l.111-.068m-.116,4.058a.066.066,0,0,1-.024.13c-.028-.005-.049-.044-.088-.084.051-.023.085-.051.112-.046m-.185-.581a.065.065,0,0,1,.033.055c0,.017-.031.031-.06.057-.016-.038-.036-.063-.033-.085s.042-.032.059-.028m-1.013,6-.062.123-.034-.014a.29.29,0,0,1,.041-.087.487.487,0,0,1,.1-.062l-.091-.073a1.019,1.019,0,0,1,.149-.092c.013-.005.056.032.066.057.031.079.052.161.084.263l.256-.041c-.016.124.048.121.118.1a.249.249,0,0,1,.047-.009l.022-.013.009.014c.05.007.069.048.054.126-.007.035-.016.069-.028.118l.1-.018.012.022a.484.484,0,0,1-.134.077.866.866,0,0,1-.2-.011c-.069-.046-.08-.321-.3-.119l.028-.064-.235-.3m-.511.054a.578.578,0,0,1,.108-.048c.009,0,.025.014.037.022l-.155.13a.219.219,0,0,1-.012-.061.066.066,0,0,1,.022-.043m0-.206a.1.1,0,0,1,.087-.039.1.1,0,0,1,.046.086c-.005.025-.051.042-.094.075-.019-.054-.046-.092-.038-.121m.124.626a.307.307,0,0,1,.068.01.2.2,0,0,1,.039.021.305.305,0,0,1,.042-.094.441.441,0,0,1,.1-.06.683.683,0,0,1,.025.1.131.131,0,0,1-.016.066c-.014.028-.03.071-.052.076s-.057-.024-.086-.038-.042-.02-.063-.028-.043-.012-.063-.02a.091.091,0,0,1,.01-.036m.235-1.617c-.016-.038-.036-.063-.033-.085s.042-.032.059-.028a.065.065,0,0,1,.033.055c0,.017-.031.031-.06.057m-.267-.533a.072.072,0,0,1-.04-.124.7.7,0,0,1,.158-.158c.079-.055.118-.031.128.064s-.143.245-.246.219m.715-.158c0,.114.087.159.165.221-.058-.007-.116-.011-.173-.022-.015,0-.027-.026-.037-.042-.019-.033-.035-.068-.054-.1s-.023-.077.023-.089c.023-.006.077.02.077.033m-.076-1.887c.041-.012.061-.024.078-.02s.024.025.036.038c-.017.012-.033.032-.05.032s-.031-.023-.065-.051m.411-.972a.582.582,0,0,1,.108-.048c.009,0,.025.014.037.022l-.155.13a.226.226,0,0,1-.012-.061.066.066,0,0,1,.022-.042m0-.206a.1.1,0,0,1,.087-.039.1.1,0,0,1,.046.086c-.005.025-.051.042-.094.075-.019-.053-.046-.092-.038-.121m.129,1.162c0,.021-.041.036-.078.064-.014-.044-.033-.074-.027-.1s.052-.043.063-.036a.089.089,0,0,1,.042.07M31.9,56.144a.4.4,0,0,1,.053-.084c.021.022.061.046.059.067-.007.1.056.121.126.146a.078.078,0,0,1,.056.113c-.012.025-.053.037-.08.054l-.05-.1c-.125.047-.16.018-.151-.13,0-.022-.02-.048-.014-.066m.044-.6a.129.129,0,0,1,.058.089c0,.014-.054.056-.073.05s-.053-.047-.094-.089c.051-.025.09-.059.11-.05m-.157-.078c-.026,0-.045-.048-.08-.089.049-.021.086-.051.111-.042s.039.054.057.083c-.029.018-.061.053-.087.049m.374-.151c-.047-.058-.194-.074-.084-.186a.128.128,0,0,1,.114-.03c.139.086-.022.141-.03.216m.058-.771-.056.232a.22.22,0,0,1-.042-.321.068.068,0,0,1,.063-.016.181.181,0,0,1,.04.073c0,.008,0,.021-.006.031m-.085-.466c-.044,0-.092-.021-.085-.084l.168.04c-.028.015-.056.045-.083.043m-.014-1.743c-.016-.036-.038-.062-.034-.082s.046-.042.056-.036a.09.09,0,0,1,.041.063c0,.014-.032.03-.063.055m-.023.089c.025,0,.064.053.06.076s-.048.051-.09.09c-.025-.051-.057-.087-.05-.111a.1.1,0,0,1,.081-.055m-.2,2.544c.029,0,.058.009.087.014a.805.805,0,0,1-.028.124c-.007.018-.035.028-.054.042s-.049.047-.069.043-.04-.039-.061-.06l-.16-.159c.075,0,.127-.007.18-.008a.93.93,0,0,1,.1,0m-.2.893a.066.066,0,0,1-.024.13c-.028-.006-.049-.044-.088-.084.051-.023.085-.051.112-.046m.679-1.083c-.021-.012-.049-.02-.072-.031l.049-.014.023.045a.063.063,0,0,1,.022.019.054.054,0,0,1,0,.033l.018.035-.028.031c0-.021.008-.045.01-.066l-.027-.053m-.034-.655a.292.292,0,0,1-.067-.076l.135.032c-.023.016-.057.05-.068.044m.124,1.033c-.021,0-.039-.043-.071-.082.045-.02.079-.047.1-.039s.038.048.055.074c-.027.017-.055.049-.08.047m-.093-1.415a.1.1,0,0,1-.055-.067c0-.019.022-.063.037-.064a.142.142,0,0,1,.08.035c.034.025.064.057.116.105a1.011,1.011,0,0,1-.178-.01m.025-.193c-.049,0-.1-.016-.15-.025.007-.074.014-.145.022-.216,0-.013.018-.035.021-.034a2.277,2.277,0,0,1,.243.082c.015.007.027.059.018.08a.151.151,0,0,1-.154.112m.027-.266c.011-.152.059-.224.215-.2-.006.06.01.146-.025.177s-.121.016-.191.021m.168-.9c-.024.006-.057-.024-.086-.038s-.042-.02-.063-.028-.043-.012-.063-.02a.092.092,0,0,1,.01-.036.321.321,0,0,1,.068.01.215.215,0,0,1,.039.021.307.307,0,0,1,.042-.094.441.441,0,0,1,.1-.06.681.681,0,0,1,.025.1.129.129,0,0,1-.016.066c-.014.028-.03.071-.052.076m-.094-2.5c.024,0,.045.033.086.067-.048.015-.076.034-.1.027s-.038-.037-.057-.057c.022-.014.047-.04.067-.037m-.564.991a.159.159,0,0,1,.132-.152.243.243,0,0,1,.238.122c.031.067.059.135.094.216a.088.088,0,0,1,.038,0,.252.252,0,0,1,.089.036.092.092,0,0,1-.027.069c-.03.012-.091.019-.1,0-.066-.109-.14-.061-.23-.038a.22.22,0,0,1-.185-.055.281.281,0,0,1-.049-.2M31.916,52a.107.107,0,0,1,.052.03.958.958,0,0,1,.063.078l-.1.041c-.038-.027-.071-.041-.086-.065a.235.235,0,0,1-.015-.087.508.508,0,0,1,.085,0m-.461.846a.409.409,0,0,1,.105-.05.2.2,0,0,1,.042,0c0-.035-.007-.062-.012-.089a.091.091,0,0,1,.119-.114.166.166,0,0,1,.117.152.258.258,0,0,1-.169.141c-.02,0-.046,0-.057.014-.035.039-.074.062-.118.025-.019-.016-.034-.071-.025-.078M31.092,53.9h.086c.07-.081.124-.15.186-.209a.093.093,0,0,1,.091,0,.205.205,0,0,1-.082.3c-.051.016-.109.053-.153.041s-.1-.071-.143-.11Zm-.3,1.719a.16.16,0,0,1,.132-.152.243.243,0,0,1,.238.122c.031.067.059.135.094.216a.086.086,0,0,1,.038,0,.248.248,0,0,1,.089.036.092.092,0,0,1-.027.069c-.03.012-.091.019-.1,0-.066-.109-.14-.061-.23-.038a.22.22,0,0,1-.185-.055.281.281,0,0,1-.049-.2m.254,1.4c0,.014-.032.03-.063.055-.016-.037-.038-.062-.034-.082s.046-.042.056-.036a.089.089,0,0,1,.041.063m-.351-.283a.5.5,0,0,1,.085,0,.107.107,0,0,1,.052.03.937.937,0,0,1,.063.078l-.1.041c-.038-.027-.071-.041-.086-.065a.238.238,0,0,1-.015-.087m.017.818c.041-.012.061-.024.078-.02s.024.025.036.038c-.017.012-.033.033-.05.032s-.031-.023-.065-.051m.106.421a.271.271,0,0,1,.009-.109l.043-.009.055.128-.023.023c-.03-.01-.079-.014-.085-.033m.179.3c-.023,0-.039-.049-.077-.1.067-.028.108-.057.146-.055.017,0,.045.064.044.1,0,.074-.069.066-.113.058m.113,2.26a.056.056,0,0,1-.031-.038c0-.011.013-.036.021-.036a.081.081,0,0,1,.046.02c.019.015.036.033.066.06a.572.572,0,0,1-.1-.006m.1-.174a.086.086,0,0,1-.088.064c-.028,0-.056-.009-.086-.014,0-.042.008-.083.013-.123,0-.007.01-.02.012-.019a1.285,1.285,0,0,1,.139.047c.009,0,.015.034.01.046m.036-.1c-.021.019-.069.009-.109.012.006-.087.034-.128.123-.113,0,.034.005.084-.014.1m-.17-1.277a.132.132,0,0,1,.018-.129c.094-.066.139.034.216.075-.081.074-.148.157-.234.054m.539,1.228a.09.09,0,0,1,.038.008.751.751,0,0,0,.023-.074.573.573,0,0,0,0-.07c.027-.013.059-.031,0-.064a.073.073,0,0,1-.035-.055c.006-.041.04-.032.069-.024l.055.016c0,.075-.005.147-.007.219a.063.063,0,0,0,.007.036,1.343,1.343,0,0,0,.106.139c.019.021.054.027.079.043A.144.144,0,0,1,32,60.44c0,.007-.019.04-.027.039a.178.178,0,0,1-.076-.027.461.461,0,0,1-.055-.058s-.015,0-.018,0l-.091.143c-.049.009-.072-.093-.122-.034a1.065,1.065,0,0,0-.1-.112c-.012-.011-.044,0-.066,0s-.048.008-.072.012c0-.013-.01-.033,0-.039a.268.268,0,0,1,.069-.051,1.268,1.268,0,0,0,.112-.073.114.114,0,0,1,.059-.022m-.035-1.4a1.552,1.552,0,0,1-.069-.2c0-.01.057-.049.083-.045.1.017.085.1.087.171,0,.017-.045.034-.1.073m-.027-.934c-.019,0-.016-.09-.039-.128-.053-.089-.012-.125.07-.141-.019-.087-.194-.165-.253-.106a.112.112,0,0,1-.09.042.446.446,0,0,1-.073.055c-.014-.044-.033-.074-.027-.1a.029.029,0,0,1,.007-.009.253.253,0,0,0-.042-.029.454.454,0,0,1-.093-.074c-.027-.025-.052-.05-.075-.073l-.014.012c-.025-.051-.057-.087-.05-.112a.1.1,0,0,1,.081-.054A.082.082,0,0,1,31,57.2a.341.341,0,0,1,.076-.061.257.257,0,0,1,.152,0c.1.021.208.049.322.076l.042-.128.1.016-.012-.152.13.055a.311.311,0,0,1-.05.1c-.087.078-.181.148-.28.227l.2.277-.025.081c.089-.013.165-.007.2-.1a.245.245,0,0,1,.248-.134l.138.033c.053.012.114.016.094.1a.032.032,0,0,0,.01.028c.141.066.051.167.032.25-.025.109-.111.117-.208.108-.042,0-.087.029-.131.03a2.4,2.4,0,0,1-.476-.121m.313.284c.021.005.036.04.053.061l-.084.063-.045-.1c.026-.011.055-.035.076-.029m.161,1.109c-.019.034-.066.052-.1.077-.085-.034-.116-.06-.1-.134s.072-.059.126-.049.109.038.072.106m.473-.212c-.056.124-.181.1-.28.135a.153.153,0,0,1-.072.005.214.214,0,0,1-.107-.33c.023-.024.067-.028.12-.048l-.082-.058.03-.127.176.08.012-.108c.031,0,.067-.018.092-.007a.121.121,0,0,1,.047.071c-.059.058-.005.094.017.141.034.072.057.148.088.229-.018.007-.037.009-.041.017m0-1.941-.065-.134.116-.067c.015.035.051.078.041.1s-.06.066-.093.1m.215.118a.358.358,0,0,1,.085.079l-.011.035c-.028.01-.069.035-.081.026a.435.435,0,0,1-.069-.1c.026-.014.06-.046.075-.039m-.085-.556c-.023,0-.041-.038-.074-.072.044-.016.076-.041.095-.033s.04.047.06.072c-.027.012-.056.037-.081.033m.021-1.2c-.012-.054-.03-.089-.021-.114s.045-.041.069-.061c.019.031.057.065.052.092s-.052.045-.1.083m.143,1.4c-.022-.006-.037-.034-.067-.065.038-.015.063-.034.08-.029a.067.067,0,0,1,.037.054c0,.017-.038.044-.051.04m.045-1.29.021-.03.125.073-.082.046-.063-.089m.27.85c-.014.035-.065.055-.125.1-.03-.07-.066-.113-.06-.149a.085.085,0,0,1,.115-.059c.058.015.09.056.069.107m.009-1.062a.236.236,0,0,1-.159-.083c-.044-.056-.165-.053-.252-.075a1.227,1.227,0,0,1-.167-.05c.189-.071.08-.171.037-.248.086.04.168.077.249.117a.069.069,0,0,1,.026.032,1,1,0,0,0,.094.181c.012.014.08-.016.137-.03.01.143.239.028.252.192a2.093,2.093,0,0,1-.218-.035m-.15-.314a.11.11,0,0,1,.127-.083c.026.013.06.068.053.079a.99.99,0,0,1-.131.135.542.542,0,0,1-.05-.131m.372-.451c-.028-.011-.043-.052-.063-.081.03-.018.061-.05.09-.048s.042.045.073.084c-.044.022-.08.054-.1.046m-.046-.4c-.016-.019,0-.1.012-.1.12-.044.129.071.183.139a.131.131,0,0,1-.194-.037m.6-.6a.312.312,0,0,1-.134-.046.809.809,0,0,1-.1-.1c-.008-.007-.027,0-.031,0l-.158.25c-.086.016-.126-.163-.214-.06a1.884,1.884,0,0,0-.17-.2c-.021-.019-.077,0-.116,0s-.083.014-.125.021c0-.023-.018-.058-.008-.068a.467.467,0,0,1,.12-.09,2.244,2.244,0,0,0,.2-.127.2.2,0,0,1,.1-.038.157.157,0,0,1,.066.014,1.321,1.321,0,0,0,.04-.13.934.934,0,0,0,.008-.122c.047-.023.1-.055,0-.113a.128.128,0,0,1-.061-.1c.01-.071.07-.055.121-.042l.1.029c0,.132-.009.257-.012.383a.111.111,0,0,0,.013.063,2.378,2.378,0,0,0,.185.244c.034.036.094.047.139.075a.252.252,0,0,1,.084.083c.006.012-.033.07-.048.068m.04-1.018c-.028.01-.069.036-.081.026a.43.43,0,0,1-.069-.1c.026-.014.06-.046.075-.039a.363.363,0,0,1,.085.079l-.011.035m0-.465c-.022-.006-.037-.034-.066-.065.038-.015.063-.034.08-.029a.067.067,0,0,1,.037.054c0,.017-.038.044-.051.04m.246-.547c.058.015.09.056.069.107-.014.035-.065.055-.125.1-.03-.07-.066-.113-.06-.149a.086.086,0,0,1,.115-.059m.059,2.325a.291.291,0,0,1-.1-.149c-.032-.095-.047-.195-.07-.3a.358.358,0,0,1,.429.122c-.081.027-.148.055-.218.072s-.076.038-.021.085.074.077.139.146c-.064.01-.128.042-.16.021m.378.826a.411.411,0,0,1-.1-.037c-.134-.094-.094-.242-.1-.372,0-.017.054-.052.084-.054a.372.372,0,0,1,.113.024c.012.135.024.251.031.367a.219.219,0,0,1-.023.072M34.528,51.4l-.083-.117c.039-.013.082-.041.117-.034s.052.054.077.083l-.111.068M37.534,58c-.026-.072-.059-.12-.051-.157s.082-.066.1-.055a.141.141,0,0,1,.063.112c0,.029-.06.054-.116.1m.233.242c-.032,0-.057-.057-.1-.111.067-.026.114-.062.144-.051s.046.067.068.1c-.037.021-.076.063-.109.058m.11-.531a.184.184,0,0,1-.126.072.735.735,0,0,1-.124-.186.725.725,0,0,1,.09-.062c.083.057.207.053.16.176" transform="translate(-26.266 -39.311)" fill="#fff"/>
  </g>
</svg>
